<!--?xml version="1.0" standalone="no"?-->
              <svg viewBox="0 0 100 100" xmlns="http://www.w3.org/2000/svg" version="1.1">
                    <defs> 
                        <linearGradient id="sw-gradient" x1="0" x2="1" y1="1" y2="0">
                            <stop id="stop1" stop-color="rgba(12.066, 148.659, 235.825, 1)" offset="0%"></stop>
                            <stop id="stop2" stop-color="rgba(56.17, 194.843, 145.52, 1)" offset="100%"></stop>
                        </linearGradient>
                    </defs>
                <path fill="url(#sw-gradient)" d="M15.9,-20.9C20.2,-18.8,23,-13.6,23.4,-8.5C23.7,-3.5,21.6,1.4,19.9,6.4C18.2,11.5,17,16.6,13.8,22.6C10.5,28.5,5.3,35.2,-1.2,36.9C-7.8,38.7,-15.5,35.3,-22.7,30.7C-29.8,26,-36.3,20,-39.7,12.3C-43,4.6,-43.2,-4.8,-40,-12.4C-36.7,-20.1,-30,-26.1,-22.8,-27.2C-15.5,-28.3,-7.8,-24.6,-1,-23.3C5.8,-21.9,11.6,-22.9,15.9,-20.9Z" width="100%" height="100%" transform="translate(50 50)" stroke-width="0" style="transition: all 0.3s ease 0s;"></path>
				<style>
    .small { font: bold italic 13px serif; fill: white; }
    .heavy { font: bold italic 30px serif; fill: white;}
    .Rrrrr { font: bold italic 18px serif; fill: white;}
  </style>

  <text x="15" y="60" class="heavy">D</text>
  <text x="35" y="60" class="Rrrrr">E</text>
  <text x="48" y="55" class="small">F</text>
  <text x="57" y="55" class="small">T</text>
              </svg>